HIERARCHY
ROOT Hips
{
	OFFSET 51.768600 -37.608715 84.732994
	CHANNELS 6 Xposition Yposition Zposition Xrotation Yrotation Zrotation
	JOINT spine
	{
		OFFSET 0.000000 -0.342407 5.954376
		CHANNELS 3 Xrotation Yrotation Zrotation
		JOINT spine1
		{
			OFFSET 0.000000 0.000000 8.856018
			CHANNELS 3 Xrotation Yrotation Zrotation
			JOINT spine2
			{
				OFFSET 0.000000 -0.000004 8.485672
				CHANNELS 3 Xrotation Yrotation Zrotation
				JOINT Neck
				{
					OFFSET 0.000000 -1.038704 21.786308
					CHANNELS 3 Xrotation Yrotation Zrotation
					JOINT Head
					{
						OFFSET 0.000000 0.000000 6.582199
						CHANNELS 3 Xrotation Yrotation Zrotation
						End Site
						{
							OFFSET 0.000000 5.254356 15.932602
						}
					}
				}
				JOINT RightShoulder
				{
					OFFSET -3.573071 0.497524 9.163864
					CHANNELS 3 Xrotation Yrotation Zrotation
					JOINT RightArm
					{
						OFFSET 0.000000 -0.000004 12.019203
						CHANNELS 3 Xrotation Yrotation Zrotation
						JOINT RightArmRoll
						{
							OFFSET 0.000000 0.000000 6.067551
							CHANNELS 3 Xrotation Yrotation Zrotation
							JOINT RightForeArm
							{
								OFFSET 0.000000 -0.000004 17.672592
								CHANNELS 3 Xrotation Yrotation Zrotation
								JOINT RightForeArmRoll
								{
									OFFSET 0.000000 0.000000 6.808716
									CHANNELS 3 Xrotation Yrotation Zrotation
									JOINT RightHand
									{
										OFFSET 0.000000 0.000000 13.663605
										CHANNELS 3 Xrotation Yrotation Zrotation
										End Site
										{
											OFFSET 0.000000 0.000000 0.100006
										}
									}
								}
							}
						}
					}
				}
				JOINT LeftShoulder
				{
					OFFSET 3.573071 0.497524 9.163864
					CHANNELS 3 Xrotation Yrotation Zrotation
					JOINT LeftArm
					{
						OFFSET 0.000000 -0.000004 12.019203
						CHANNELS 3 Xrotation Yrotation Zrotation
						JOINT LeftArmRoll
						{
							OFFSET 0.000000 0.000000 6.067551
							CHANNELS 3 Xrotation Yrotation Zrotation
							JOINT LeftForeArm
							{
								OFFSET 0.000000 -0.000004 17.672592
								CHANNELS 3 Xrotation Yrotation Zrotation
								JOINT LeftForeArmRoll
								{
									OFFSET 0.000000 0.000000 6.808716
									CHANNELS 3 Xrotation Yrotation Zrotation
									JOINT LeftHand
									{
										OFFSET 0.000000 0.000000 13.663605
										CHANNELS 3 Xrotation Yrotation Zrotation
										End Site
										{
											OFFSET 0.000000 0.000000 0.100006
										}
									}
								}
							}
						}
					}
				}
			}
		}
	}
	JOINT RightUpLeg
	{
		OFFSET -5.277740 0.811859 -0.967796
		CHANNELS 3 Xrotation Yrotation Zrotation
		JOINT RightUpLegRoll
		{
			OFFSET 0.000000 0.000000 16.021400
			CHANNELS 3 Xrotation Yrotation Zrotation
			JOINT RightLeg
			{
				OFFSET 0.000000 0.000004 -19.840103
				CHANNELS 3 Xrotation Yrotation Zrotation
				JOINT RightLegRoll
				{
					OFFSET 0.000000 -0.000004 19.904999
					CHANNELS 3 Xrotation Yrotation Zrotation
					JOINT RightFoot
					{
						OFFSET 0.000000 -0.000004 16.567497
						CHANNELS 3 Xrotation Yrotation Zrotation
						JOINT RightToeBase
						{
							OFFSET 0.000000 -0.000004 13.849609
							CHANNELS 3 Xrotation Yrotation Zrotation
							End Site
							{
								OFFSET 0.005871 0.773117 6.707275
							}
						}
					}
				}
			}
		}
	}
	JOINT LeftUpLeg
	{
		OFFSET 5.277740 0.811859 -0.967796
		CHANNELS 3 Xrotation Yrotation Zrotation
		JOINT LeftUpLegRoll
		{
			OFFSET 0.000000 0.000000 16.021500
			CHANNELS 3 Xrotation Yrotation Zrotation
			JOINT LeftLeg
			{
				OFFSET 0.000000 -0.000004 19.840004
				CHANNELS 3 Xrotation Yrotation Zrotation
				JOINT LeftLegRoll
				{
					OFFSET 0.000000 -0.000004 20.089012
					CHANNELS 3 Xrotation Yrotation Zrotation
					JOINT LeftFoot
					{
						OFFSET 0.000000 -0.000004 16.383499
						CHANNELS 3 Xrotation Yrotation Zrotation
						JOINT LeftToeBase
						{
							OFFSET 0.000000 0.000000 13.849594
							CHANNELS 3 Xrotation Yrotation Zrotation
							End Site
							{
								OFFSET -0.026310 0.773113 6.707275
							}
						}
					}
				}
			}
		}
	}
}
MOTION
Frames: 7
Frame Time: 0.041667
49.352406 5.991463 53.799591 -21.265570 1.503250 4.790225 -0.290241 0.308751 -0.489454 3.425146 0.628881 -0.989113 5.070163 0.616987 -0.996644 29.339733 -3.554495 0.144063 6.793880 -2.162274 0.377699 3.729947 -92.785190 0.075188 81.891612 -61.164918 88.972250 -0.000005 0.000004 -0.000001 -0.030621 3.643000 -1.990774 0.000006 0.000022 -3.011610 -5.000159 -7.999930 -0.000022 -27.992733 70.700326 32.393169 -70.579282 123.835032 74.215633 0.000000 0.000000 -0.000000 -0.027592 -3.637020 1.990799 0.000002 -0.000005 3.011601 -5.000169 7.999927 0.000002 -59.715804 -179.421010 -2.530571 -179.999991 0.000005 -1.079998 118.806756 2.966836 -1.158100 -0.000005 0.000004 1.141820 69.259170 6.949236 1.967826 25.456955 -7.355614 0.000011 -60.870318 177.793786 4.416043 -0.000035 -0.000004 -1.142730 -59.867995 -3.485321 0.160922 -0.000002 -0.000003 -1.035920 66.326840 -7.177260 -1.620876 25.456959 7.355613 -0.000008 
49.355904 6.003292 53.805595 -21.262609 1.497548 4.798987 -0.281984 0.307966 -0.488902 3.441645 0.626243 -0.987173 5.086663 0.614373 -0.994745 29.364380 -3.574029 0.132119 6.889622 -2.123409 0.361083 3.919219 -92.731177 0.268068 82.053972 -61.124770 89.070065 -0.000006 0.000005 -0.000001 -0.030614 3.642998 -1.990774 0.000007 0.000021 -3.011609 -5.000166 -7.999929 -0.000021 -28.007095 70.692089 32.409623 -70.590094 123.892760 74.249231 0.000004 0.000000 0.000000 -0.027586 -3.637360 1.990799 0.000004 -0.000006 3.011600 -5.000174 7.999927 0.000003 -59.755638 -179.431788 -2.527617 -179.999991 0.000005 -1.080995 118.756499 2.970849 -1.157743 -0.000006 0.000004 1.143110 69.259805 6.949231 1.967186 25.456957 -7.355614 0.000012 -60.885085 177.835873 4.425982 -0.000035 -0.000004 -1.142730 -59.884756 -3.497265 0.155901 -0.000000 -0.000003 -1.035990 66.325986 -7.177239 -1.619926 25.456957 7.355617 -0.000007 
49.356304 6.003036 53.806801 -21.260151 1.491869 4.807665 -0.273666 0.307228 -0.488409 3.458255 0.623668 -0.985307 5.103272 0.611817 -0.992928 29.384966 -3.594875 0.120047 6.988848 -2.082862 0.344138 4.115596 -92.676890 0.468144 82.218450 -61.084663 89.169349 -0.000004 0.000004 -0.000001 -0.030617 3.643000 -1.990775 0.000003 0.000022 -3.011610 -5.000159 -7.999929 -0.000022 -28.025017 70.683360 32.430042 -70.599431 123.950735 74.281859 0.000005 0.000001 0.000000 -0.027590 -3.637730 1.990799 0.000004 -0.000006 3.011601 -5.000173 7.999927 0.000004 -59.794358 -179.442511 -2.524609 -179.999991 0.000005 -1.082006 118.706980 2.975386 -1.156539 -0.000004 0.000004 1.144370 69.260331 6.949221 1.966550 25.456953 -7.355615 0.000011 -60.898855 177.877346 4.436230 -0.000034 -0.000004 -1.142730 -59.900732 -3.509183 0.150905 -0.000003 -0.000003 -1.036029 66.325249 -7.177229 -1.618772 25.456959 7.355615 -0.000007 
49.359905 6.019253 53.805092 -21.258100 1.486195 4.816297 -0.265312 0.306524 -0.487955 3.474957 0.621133 -0.983495 5.119973 0.609304 -0.991168 29.402578 -3.616663 0.107910 7.090522 -2.041172 0.326911 4.319902 -92.622338 0.676156 82.384178 -61.044426 89.269391 -0.000008 0.000004 -0.000001 -0.030615 3.642999 -1.990774 0.000006 0.000021 -3.011611 -5.000165 -7.999930 -0.000022 -28.045325 70.674242 32.453155 -70.608781 124.008696 74.315026 0.000005 0.000001 -0.000000 -0.027588 -3.638119 1.990799 -0.000002 -0.000006 3.011600 -5.000172 7.999927 0.000003 -59.832396 -179.452688 -2.522431 -179.999991 0.000005 -1.083004 118.657912 2.979453 -1.156206 -0.000006 0.000004 1.145590 69.260850 6.949210 1.965817 25.456955 -7.355615 0.000011 -60.911962 177.918751 4.446104 -0.000034 -0.000004 -1.142730 -59.916182 -3.521077 0.145917 0.000000 -0.000003 -1.036050 66.324518 -7.177221 -1.617718 25.456959 7.355616 -0.000008 
49.360603 6.037064 53.808701 -21.256239 1.480528 4.824899 -0.256938 0.305839 -0.487526 3.491682 0.618624 -0.981711 5.136711 0.606815 -0.989439 29.418714 -3.638967 0.095735 7.193578 -1.998844 0.309451 4.532846 -92.567621 0.892849 82.550418 -61.004012 89.369672 -0.000004 0.000004 -0.000001 -0.030614 3.643000 -1.990774 0.000005 0.000021 -3.011610 -5.000157 -7.999931 -0.000021 -28.067120 70.664973 32.477925 -70.616677 124.066917 74.346787 0.000002 0.000000 0.000000 -0.027593 -3.638530 1.990798 0.000000 -0.000006 3.011600 -5.000173 7.999927 0.000003 -59.869921 -179.463357 -2.519383 -179.999991 0.000005 -1.083003 118.609199 2.983999 -1.155034 -0.000004 0.000005 1.146809 69.261281 6.949230 1.965193 25.456955 -7.355614 0.000011 -60.924570 177.959595 4.456648 -0.000035 -0.000004 -1.142730 -59.931263 -3.532970 0.140937 -0.000001 -0.000002 -1.036050 66.323780 -7.177213 -1.616567 25.456960 7.355613 -0.000006 
49.361404 6.043362 53.806297 -21.254379 1.474871 4.833483 -0.248557 0.305158 -0.487101 3.508434 0.616121 -0.979934 5.153456 0.604333 -0.987719 29.434369 -3.661413 0.083556 7.296990 -1.956428 0.291820 4.754952 -92.512932 1.118717 82.716801 -60.963482 89.470110 -0.000006 0.000004 -0.000001 -0.030615 3.643000 -1.990775 0.000005 0.000022 -3.011611 -5.000165 -7.999931 -0.000021 -28.089088 70.655561 32.502896 -70.624579 124.125110 74.378663 -0.000001 0.000001 0.000000 -0.027596 -3.638940 1.990799 0.000003 -0.000005 3.011600 -5.000174 7.999927 0.000003 -59.907371 -179.473493 -2.517213 -179.999991 0.000005 -1.084001 118.560473 2.988522 -1.153837 -0.000003 0.000005 1.148009 69.261806 6.949220 1.964457 25.456959 -7.355615 0.000011 -60.937179 178.000877 4.466335 -0.000035 -0.000004 -1.142730 -59.946234 -3.544857 0.135957 -0.000000 -0.000002 -1.036059 66.323131 -7.177139 -1.615491 25.456960 7.355613 -0.000007 
49.362602 6.060780 53.809196 -21.252427 1.469204 4.842093 -0.240189 0.304468 -0.486663 3.525162 0.613607 -0.978140 5.170175 0.601840 -0.985979 29.450813 -3.683604 0.071407 7.399697 -1.914414 0.274080 4.986951 -92.458386 1.354465 82.882433 -60.922671 89.569981 -0.000006 0.000004 -0.000001 -0.030620 3.643000 -1.990774 0.000005 0.000022 -3.011609 -5.000160 -7.999928 -0.000022 -28.110490 70.646340 32.527229 -70.632516 124.183289 74.410444 0.000002 0.000000 0.000000 -0.027592 -3.639339 1.990798 0.000002 -0.000006 3.011601 -5.000168 7.999928 0.000003 -59.945019 -179.484094 -2.514210 -179.999991 0.000005 -1.084998 118.511664 2.993006 -1.153608 -0.000003 0.000004 1.149230 69.262244 6.949237 1.963734 25.456957 -7.355614 0.000011 -60.949862 178.042118 4.476189 -0.000035 -0.000004 -1.142730 -59.961418 -3.556747 0.130945 -0.000001 -0.000002 -1.036059 66.322394 -7.177126 -1.614438 25.456957 7.355615 -0.000007 
